# xmcd
#
# Track frame offsets:
#	150
#	12433
#	24315
#	38106
#	52001
#	61766
#	73979
#	84862
#	96814
#	111654
#	124007
#	134835
#	148279
#	162215
#	175367
#	186256
#	199203
#	212549
#	227031
#	237304
#	251034
#	262608
#	272744
#	282679
#	295370
#
# Disc length: 4103
#
# Revision: 1
# Processed by: cddbd v1.5.1PL0 Copyright (c) Steve Scherf et al.
# Submitted via: dBpowerAMP V4.0
# Normalized: r0:TRMNUM
#
DISCID=86100519
DTITLE=Various Artist - Rhythm and Blues - The Don Barksdale Masters Vol 2.
DYEAR=1900
DGENRE=R&B
TTITLE0=Little Willie Littlefield - Mistreated
TTITLE1=Little Willie Littlefield - Baby Shame
TTITLE2=Little Willie Littlefield - Ruby, Ruby
TTITLE3=Little Willie Littlefield - Easy Go
TTITLE4=Little Willie Littlefield - I Need A Pay Day
TTITLE5=Little Willie Littlefield - I Want A Girl
TTITLE6=Little Willie Littlefield - Theresa
TTITLE7=Little Willie Littlefield - The Day The Rains Came
TTITLE8=Little Willie Littlefield - I Wanna Love You
TTITLE9=Little Willie Littlefield - Goodbye Baby
TTITLE10=Roy Hawkins - I Hate To Be Alone
TTITLE11=Roy Hawkins - Lonesome Without You
TTITLE12=Roy Hawkins - It's Love
TTITLE13=Roy Hawkins - Baby Please Don't
TTITLE14=Pee Wees Allstars (Vocals Sugar Pie and Pee Wee) - A Few Little Words
TTITLE15=Pee Wee - Say When
TTITLE16=Sugar Pie and Pee Wee - Let's Get Together
TTITLE17=Sugar Pie and Pee Wee - If You Take Away Our Love
TTITLE18=Sugar Pie, Pee Wee and The Allstars - Beautiful Love
TTITLE19=Sugar Pie, Pee Wee and The Allstars - Stop Crying
TTITLE20=Paliya Desantos - If I Had A Wishing Well
TTITLE21=Paliya and Alvin - Darling Be Mine
TTITLE22=Charles Walker and The Beatniks - Just Me and You
TTITLE23=Charles Walker and The Beatniks - My Eyes On The World
TTITLE24=Roland Mitchell and Band - Irma Special
EXTD=For all the best in 60s R&B and Soul Tunes in to www.modradiouk.co.uk 
EXTT0=
EXTT1=
EXTT2=
EXTT3=
EXTT4=
EXTT5=
EXTT6=
EXTT7=
EXTT8=
EXTT9=
EXTT10=
EXTT11=
EXTT12=
EXTT13=
EXTT14=
EXTT15=
EXTT16=
EXTT17=
EXTT18=
EXTT19=
EXTT20=
EXTT21=
EXTT22=
EXTT23=
EXTT24=
PLAYORDER=
